<?xml version="1.0" encoding="UTF-8"?>
<svg width="290mm" height="297mm" version="1.1" viewBox="0 0 290 297" xmlns="http://www.w3.org/2000/svg">
 <g fill="#abb4b9">
  <path d="m9.038 123.16q0-5.0211 1.1477-9.9378 1.2194-4.9953 3.3713-9.5069 2.1519-4.5833 5.0928-8.4537 3.0127-3.9491 6.5274-6.9424 3.5865-3.0003 7.6034-4.8227 4.0169-1.8941 8.2489-2.3027 4.9494-0.47783 7.6751 1.3392 2.7975 1.8101 2.7975 5.54 0 1.4346-0.43037 2.9824-0.35866 1.541-1.1477 3.1235-0.71731 1.5038-1.7215 2.9637-1.0042 1.4598-2.2236 2.5818-1.865-0.10681-3.2278-1.3382-1.3629-1.303-1.7215-3.1334 2.5105-2.3226 3.9451-4.6847 1.5063-2.4408 1.5063-4.3058 0-3.1561-3.9451-2.7752-1.6498 0.15931-3.443 1.0497-1.7215 0.81179-3.5148 2.2043-1.7932 1.3925-3.5148 3.2803-1.6498 1.8808-3.0844 4.0995-9.9705 15.309-9.9705 30.3 0 5.308 1.6498 8.3766 1.6498 3.0686 4.3755 3.3793 3.0844-1.0151 7.8186-4.7 4.7342-3.6849 10.329-9.3896 0.71731 0.64805 0.86077 1.4232-2.0802 2.9266-4.3038 5.6518-2.2236 2.7252-4.4473 5.0201-2.1519 2.2879-4.3038 4.0737-2.0802 1.7789-3.8734 2.8128-8.8945 0.71525-13.485-3.7909-4.5907-4.5062-4.5907-14.118z"/>
  <path d="m57.144 135.09q-4.0886-0.034-6.5274-2.9563-2.4388-2.9207-2.4388-7.7983 0-2.8692 0.86076-6.0367 0.86077-3.1675 2.4388-6.189 1.5781-3.0933 3.73-5.8833 2.1519-2.79 4.6625-4.8974 3.9451-3.3218 7.3882-3.6542 2.2954 0.99778 4.519 4.6565 0.35865-0.0339 0.64557-0.0621 0.28691-0.0994 0.64557-0.1338 3.8017-0.36713 3.8017 6.3756 0 4.519-1.5063 8.753-1.4346 4.1554-4.0886 7.7111-2.5823 3.5489-6.2405 6.1975-3.5865 2.5698-7.8903 3.9179zm3.6582-22.948q-1.2194 1.7675-2.2954 3.8081-1.0759 2.0406-1.865 4.1252-0.78903 2.0129-1.2194 3.9194-0.43037 1.8348-0.43037 3.2694 0 1.7215 0.57383 3.2442 0.57385 1.5226 1.2911 1.6686 3.2279-1.0289 5.8819-3.2219 2.7257-2.2716 4.6625-5.3995 2.0084-3.1348 3.0844-6.9686 1.1477-3.8407 1.1477-8.0728 0-1.865-0.2152-2.9202-0.21518-1.0552-0.71729-1.7957-3.1561 1.2372-5.6667 3.5598-2.4388 2.3156-4.2321 4.7841z"/>
  <path d="m95.979 95.332q1.4346-0.13844 3.2996 0.54222 1.865 0.6807 3.2996 1.9051-0.35864-2.8346-0.93249-5.2897-0.50211-2.5338-1.5781-5.1557-1.0042-2.6288-2.7257-5.6905-1.7215-3.0616-4.3038-6.9727 0.21518-0.66635 0.93248-1.5964 0.78903-0.93695 1.7215-1.7443 1.0042-0.88594 2.0084-1.5568 1.076-0.67771 2.0085-0.9112 2.0084 2.0297 3.8017 5.2279 1.7933 3.1265 3.1561 6.8683 1.3629 3.6701 2.0802 7.6895 0.78903 4.0125 0.78903 7.7424 0 3.73-0.86075 7.7582-0.78903 4.0213-2.2954 7.9685-1.4346 3.8684-3.3713 7.4267-1.9367 3.5583-4.2321 6.4339-2.2236 2.8687-4.6625 4.754-2.4388 1.957-4.8776 2.6228-4.9494-0.0961-7.6034-2.4938-2.5823-2.333-2.5823-6.9237 0-2.4388 0.71729-5.3773 0.78903-2.9454 2.0084-5.8606 1.2911-2.9938 2.9409-5.8071 1.7215-2.892 3.5865-5.2239 1.9367-2.3388 3.8734-4.0322 1.9367-1.6933 3.8017-2.3037zm-7.3165 35.208q2.5105-1.1031 5.0211-4.2865 2.5105-3.1833 4.519-7.3223 2.0084-4.2108 3.2279-8.8475 1.2912-4.7154 1.2912-8.9474 0-1.2194 0-1.5063 0-0.28691-0.0717-0.56694-1.7215 0.88353-3.6583 2.792-1.9367 1.9085-3.8734 4.3908-1.9367 2.4106-3.6582 5.2308-1.7215 2.8202-3.0844 5.6058-1.3629 2.7856-2.1519 5.3006-0.78903 2.515-0.78903 4.38 0 3.5865 3.2279 3.777z"/>
  <path d="m138.41 113.62q-1.6498 5.3956-3.2996 9.8586-1.6498 4.4631-3.5148 8.2296-1.865 3.8383-4.0169 7.0587-2.1519 3.2921-4.7342 6.2672-3.2996 3.7616-6.8144 5.8942-3.5148 2.2043-7.0295 2.5436-1.7932 0.17284-3.5865-0.0841-1.7215-0.1926-3.2279-0.76434-1.5781-0.49307-2.7258-1.3149-1.2194-0.743-1.7215-1.6988 0-0.86075 1.0042-1.6032 0.86076 0.7059 1.4346 1.0809 0.57383 0.37503 1.1477 0.60649 0.50211 0.23834 1.1477 0.24794 0.57383 0.0169 1.3629-0.06 4.0886-0.39479 7.962-3.2075 3.9451-2.748 7.3882-7.5276 3.5148-4.7148 6.384-11.304 2.8692-6.5176 4.8776-14.458-0.93247 1.5246-2.2954 3.7364-1.3629 2.2117-3.0127 4.4512-1.6498 2.1677-3.443 3.9907-1.7215 1.816-3.3713 2.5491-1.1477 0.0396-2.4388-0.26659-1.2194-0.24116-2.3671-0.84742-1.076-0.61338-1.9367-1.5345-0.86077-0.92114-1.1477-2.1846 0-2.0802 0.14342-3.3135 0.14341-1.305 0.5021-2.8459 0.64557-2.788 1.865-6.3488 1.2911-3.5677 2.9409-7.0265 1.7215-3.5375 3.73-6.6006 2.0802-3.1418 4.3038-5.0062 0.57384-0.05647 1.4346 5e-3 0.86075-0.01159 1.7932 0.18526 0.93249 0.19712 1.7932 0.54447 0.86075 0.27561 1.5063 0.85878-0.78903 0.79349-3.443 5.1383-2.654 4.3448-5.8819 12.332-0.35865 0.82365-0.86076 2.3784-0.5021 1.5548-1.0042 3.2531-0.43039 1.6913-0.78903 3.304-0.35865 1.6127-0.35865 2.5452 0 0.57383 0.14341 0.84691 0.21519 0.26603 0.35865 0.39594 1.2911-0.34002 3.443-2.4126 2.1519-2.1444 4.8776-6.4245 1.7215-2.7484 3.1561-5.3975 1.4346-2.7208 2.7975-5.4346 1.4346-2.7208 2.9409-5.5919 1.5063-2.8712 3.2278-5.9066 0.9325-0.08976 2.0084 0.02252 1.076 0.11129 2.0802 0.37277 1.0042 0.18978 1.7215 0.55124 0.78903 0.2824 1.1477 0.67828-2.2236 4.9489-4.1604 9.6548-1.9367 4.7059-3.443 9.5856z"/>
  <path d="m212.62 78.046q0 3.443-1.5781 6.6798-1.5063 3.1581-4.2321 5.86-2.7257 2.6302-6.384 4.6332-3.6582 2.003-7.962 2.9923 1.076 3.124 2.5823 6.4216 1.5781 3.2189 3.3713 6.2019t3.73 5.45q1.9367 2.4671 3.8017 4.0085-0.35864 0.75192-1.076 1.5385-0.64557 0.77965-1.578 1.4435-0.86077 0.72865-1.865 1.1843-0.93248 0.5202-1.7932 0.6035-1.578 0.15252-3.0126-1.2155-1.4346-1.3678-2.9409-4.4503-1.4346-3.161-3.0844-8.1663-1.5781-5.084-3.5148-12.213-0.78902 0.07618-1.578 0.15252-0.78903 0.07618-1.2194-0.02832-0.50211-0.23835-1.0759-0.9003-1.9367 4.3473-3.443 8.151-1.5063 3.8037-2.7257 7.3644-1.1477 3.4821-2.0802 6.8-0.86076 3.2392-1.5063 6.6011-2.4388-0.33831-4.2321-1.6716-1.7932-1.3332-3.3713-3.9066 0.28692-0.67324 0.57384-1.2748 0.35865-0.6802 0.86076-1.8046 0.50211-1.1962 1.2194-2.9869 0.78903-1.7977 2.0084-4.7846 1.2911-2.9939 3.0126-7.3204 1.7932-4.3335 4.3038-10.529 1.1477-2.7648 1.9367-4.8494 0.86076-2.0915 1.5063-3.9471 0.64557-1.9273 1.1477-3.769 0.57383-1.9204 1.1477-4.3428-3.2996 1.4662-6.1688 3.1778-2.7975 1.633-4.6625 3.3911-0.64557-0.36825-1.3629-1.1596-0.64557-0.79841-1.2194-1.7472-0.57384-1.0206-1.0042-2.055-0.43037-1.0344-0.50211-1.8883 2.1519-1.6423 5.2363-3.1595 3.1561-1.5241 6.6709-2.7242 3.5148-1.2718 7.173-2.1271 3.6582-0.85529 6.8144-1.16 8.6076-0.831 13.342 2.2985 4.7342 3.0577 4.7342 9.2265zm-17.502-4.3356q-0.50211 0.69404-1.5781 2.7347-1.076 2.0406-2.5105 4.9048-1.3629 2.7856-2.9409 6.0941-1.5063 3.3016-2.9409 6.5244 5.3797-0.51961 9.8987-1.9599 4.519-1.4405 7.8186-3.5523 3.2996-2.1835 5.0928-4.7955 1.865-2.6906 1.865-5.7033 0-3.5865-2.5823-5.2022-2.5823-1.6874-7.962-1.168-1.2194 0.11741-2.4388 0.37898-1.2194 0.18922-2.5823 0.46427z"/>
  <path d="m235.38 86.393q0.71729-0.06939 1.6498 0.12768 1.0042 0.11808 1.7932 0.47273 0.78903 0.2824 1.2911 0.66438 0.57383 0.37502 0.57383 0.73367-1.4346 3.1512-2.654 6.3532-1.2194 3.1304-2.0802 6.011-0.86076 2.8806-1.3629 5.3678-0.43038 2.4804-0.43038 4.2736 0 2.0084 0.43038 3.3298 0.43039 1.2496 1.4346 1.7265-0.86078 0.65696-2.2236 1.1472-1.3629 0.49025-2.4388 0.59412-3.8734 0.3739-3.8734-4.9341 0-4.0886 2.7257-11.453-1.4346 3.4381-3.2996 6.5591-1.865 3.0493-3.8017 5.4598-1.9367 2.4106-3.9452 4.0392-1.9367 1.5498-3.5865 1.996-2.654 0.11294-4.3038-2.095-1.6498-2.2795-1.6498-6.0095 0-4.0169 1.7215-8.6304 1.7215-4.6135 4.3755-8.6714 2.7257-4.0648 5.8818-6.8801 3.1561-2.887 6.0971-3.3144 0.71729 0.14573 1.578 0.70843 0.93249 0.55576 1.7215 1.3401 0.86076 0.77767 1.4346 1.6548 0.57383 0.80536 0.64557 1.444-2.8692 0.70742-5.9536 3.3723-3.0126 2.6579-5.5232 6.2716-2.4388 3.535-4.0169 7.4891-1.5781 3.954-1.5781 7.2536 0 1.3629 1.0042 1.6246 2.0802-0.63123 4.8059-3.9788 2.7257-3.4192 6.5992-10.321 0.71731-1.3604 1.5781-3.0216 0.93249-1.668 1.865-3.4796 0.93249-1.8115 1.7932-3.6162 0.93249-1.8833 1.7215-3.6092z"/>
  <path d="m271.09 100.81q-1.6498 5.3956-3.2996 9.8586-1.6498 4.4631-3.5148 8.2296-1.865 3.8383-4.0169 7.0587-2.1519 3.2921-4.7342 6.2672-3.2996 3.7616-6.8144 5.8942-3.5148 2.2043-7.0295 2.5436-1.7932 0.17339-3.5865-0.0841-1.7215-0.19259-3.2278-0.76435-1.578-0.49307-2.7257-1.3149-1.2194-0.743-1.7215-1.6988 0-0.86076 1.0042-1.6033 0.86077 0.70595 1.4346 1.0809 0.57385 0.37503 1.1477 0.60654 0.50211 0.23835 1.1477 0.24796 0.57385 0.0169 1.3629-0.0598 4.0886-0.39479 7.962-3.2075 3.9452-2.748 7.3882-7.5276 3.5148-4.7149 6.384-11.304 2.8692-6.5175 4.8776-14.458-0.9325 1.5246-2.2954 3.7364-1.3629 2.2118-3.0127 4.4512-1.6498 2.1677-3.443 3.9906-1.7215 1.816-3.3713 2.5491-1.1477 0.0396-2.4388-0.26658-1.2194-0.24117-2.3671-0.84738-1.076-0.61342-1.9367-1.5346-0.86076-0.92113-1.1477-2.1846 0-2.0802 0.14341-3.3134 0.14342-1.305 0.50211-2.846 0.64557-2.788 1.865-6.3488 1.2911-3.5677 2.9409-7.0265 1.7215-3.5375 3.73-6.6006 2.0802-3.1418 4.3038-5.0062 0.57383-0.05647 1.4346 5e-3 0.86077-0.01159 1.7932 0.18526 0.93249 0.19712 1.7932 0.54447 0.86077 0.27561 1.5063 0.85878-0.78903 0.79349-3.443 5.1383-2.654 4.3448-5.8819 12.332-0.35865 0.82366-0.86076 2.3784-0.50211 1.5548-1.0042 3.253-0.43039 1.6914-0.78904 3.304-0.35864 1.6127-0.35864 2.5452 0 0.57383 0.14341 0.84691 0.21518 0.26603 0.35865 0.39594 1.2911-0.34001 3.443-2.4126 2.1519-2.1445 4.8776-6.4245 1.7215-2.7484 3.1561-5.3976 1.4346-2.7208 2.7975-5.4346 1.4346-2.7208 2.9409-5.592 1.5063-2.8712 3.2278-5.9066 0.9325-0.08976 2.0084 0.02252 1.0759 0.11128 2.0802 0.37277 1.0042 0.18978 1.7215 0.55124 0.78903 0.2824 1.1477 0.67823-2.2236 4.9488-4.1603 9.6548-1.9367 4.7059-3.443 9.5856z"/>
  <path d="m43.156 197.07q-0.19145 0.56614-0.19145 0.74903 0 3.1083 9.564 3.5056 3.3474 0.0571 6.6948-0.25191l1.8171-0.16774q2.9649-0.27336 4.0169 0.17791 1.1477 0.35131 1.1477 2.4539 0 3.3825-2.8692 3.6473l-5.3558 0.22027q-4.3038 0.39706-12.051 2.3006-7.6512 1.8945-14.729 4.9246-7.0773 3.0301-7.0773 5.8641 0 2.7426 10.042 5.2898 10.042 2.5472 19.989 1.6294 10.042-0.92678 17.885-3.3875 7.9381-2.561 11.668-4.6422 3.73-2.0812 3.73-2.7212 0-0.63998-3.73-0.29595-3.73 0.34452-9.564 1.7968-5.7384 1.4437-6.9817 2.0156-1.1477 0.56312-1.7215 0.61598-0.47838 0.0452-0.57383 0.0508 0-0.0916-0.09539-0.53995 4.8776-4.3812 10.903-6.9485 6.121-2.6676 9.7553-3.003 6.5035-0.60016 6.5035 5.8907 0 4.114-3.73 7.7493-3.6343 3.5351-9.564 6.0022-12.051 4.8603-25.918 6.1401l-2.391 0.22083q-9.1814 13.006-11.955 17.559-0.19147 1.0233-1.1477 1.1115-0.95638 0.0881-2.0084-1.5516-0.95639-1.6487-0.95639-3.7514 0-4.0225 7.0774-13.361-11.094-0.71317-15.685-4.8605-4.4951-4.1562-4.4951-8.3616 0-4.2053 2.1997-7.2424 2.2954-3.1373 5.4515-5.0741 3.2517-1.9456 6.4079-3.334 3.2518-1.3971 5.4515-2.1486 2.2954-0.85178 2.2954-1.0346l-0.19147-0.53092q-3.2518-2.9911-3.2518-5.7337 0-2.834 1.339-5.6088 3.3474-6.7998 11.859-10.876 8.512-4.1681 18.554-5.8262 12.242-13.014 18.363-17.145 0.76514-0.61914 1.4346-0.68093 0.66945-0.0616 1.0521 0.26886 2.1041 1.2685 2.1041 1.7257 0 0.36544-0.28692 0.66642-8.1294 8.4295-13.103 14.191 12.051-0.19768 12.051 7.4814 0 1.0971-0.19147 2.3946-0.19147 0.0169-0.76515-0.56933-2.4866-2.2389-13.103-1.2592-10.52 0.97083-21.997 5.4125-11.477 4.3503-13.677 8.8501z"/>
  <path d="m142.32 165.62q2.7257-0.26321 5.6667 0.45691 2.9409 0.72029 5.1646 2.0837-0.71731 3.7275-1.3629 6.7307-0.57383 2.9963-1.0759 5.4836-0.50211 2.4156-1.0042 4.4725-0.43038 1.9783-0.86077 3.7413-1.7215 6.6219-3.5865 12.038-1.7932 5.3377-3.8734 9.6989-2.0084 4.3542-4.3038 7.8037-2.2236 3.4425-4.8059 6.1307-2.5106 2.6094-5.0211 4.3582-2.5105 1.7487-4.6625 2.3868-2.8692 0.27676-5.308-0.13331-2.4388-0.41005-4.2321-1.3847-1.7215-0.90973-2.7258-2.3909-0.93249-1.4163-0.93249-3.2813 0-2.0084 1.0042-5.118 1.0042-3.1814 3.0844-7.5425 0.86076-0.0116 2.0084 0.23665 1.1477 0.24795 2.2954 0.63914 1.1477 0.3914 2.0802 0.94684 0.93247 0.48402 1.3629 1.0161-2.2954 2.5887-3.73 5.5964-1.4346 2.936-1.4346 5.0162 0 1.2194 0.43038 2.1103 0.50211 0.95576 1.6498 1.634 4.3755-2.0722 8.5359-6.9929 4.1604-4.8489 7.3882-11.831 1.9367-4.1322 3.5148-9.3773 1.5781-5.2452 2.654-10.442 1.1477-5.2753 1.7215-9.9932 0.64557-4.7965 0.64557-8.0244 0-0.50211-0.0717-1.3559 0-0.93249-0.0717-1.8581 0-1.0042-0.0717-1.7863t-0.0717-1.069z"/>
  <path d="m159.18 219.51q-4.0886-0.034-6.5274-2.9564-2.4388-2.9207-2.4388-7.7983 0-2.8692 0.86077-6.0367 0.86076-3.1675 2.4388-6.189 1.578-3.0933 3.73-5.8833 2.1519-2.79 4.6624-4.8974 3.9452-3.3218 7.3882-3.6542 2.2954 0.99779 4.519 4.6565 0.35865-0.0339 0.64557-0.0621 0.28692-0.0994 0.64557-0.13381 3.8017-0.36713 3.8017 6.3756 0 4.519-1.5063 8.753-1.4346 4.1554-4.0886 7.7112-2.5823 3.5489-6.2405 6.1974-3.5865 2.5699-7.8903 3.9179zm3.6582-22.948q-1.2194 1.7675-2.2954 3.8081-1.076 2.0406-1.865 4.1252-0.78902 2.0129-1.2194 3.9194-0.43039 1.8348-0.43039 3.2694 0 1.7215 0.57385 3.2442 0.57383 1.5226 1.2911 1.6686 3.2278-1.0289 5.8819-3.2219 2.7257-2.2716 4.6624-5.3994 2.0085-3.1349 3.0844-6.9687 1.1477-3.8407 1.1477-8.0728 0-1.865-0.21519-2.9202-0.21518-1.0552-0.71729-1.7957-3.1561 1.2371-5.6667 3.5597-2.4388 2.3156-4.2321 4.7841z"/>
  <path d="m182.31 213.55q0-2.5106 0.50211-5.9304 0.50211-3.4915 1.4346-7.455 1.0042-3.9703 2.2954-8.327 1.3629-4.3637 3.0126-8.755 1.4346-3.9402 3.2996-7.9937 1.9367-4.0604 4.1603-8.005 2.2236-3.9446 4.5907-7.5445 2.4388-3.6068 4.8776-6.6397 1.1477-0.11079 2.4388 0.0508 1.3629 0.15534 2.5823 0.53995 1.2911 0.30557 2.2954 0.85438 1.0759 0.54165 1.7215 1.1249-5.3798 6.0426-9.6835 12.125-4.3038 6.0105-6.8144 11.202-1.3629 2.8574-2.5105 5.3352-1.076 2.4709-2.0084 4.9281-0.93249 2.3854-1.7215 4.8286-0.7173 2.3646-1.3629 5.0092 13.772-18.903 20.443-19.547 1.865-0.18016 4.0169 0.83163 2.1519 1.0117 3.8017 2.9326-2.2236 2.6535-4.5907 6.3251-2.3671 3.6716-4.3755 7.3802-1.9367 3.63-3.2278 6.7673-1.2194 3.0587-1.2194 4.4933 0 0.71729 0.21519 0.98343 0.21518 0.19429 0.93249 0.12536 1.0759-0.10383 1.7215-0.45297 0.64557-0.34904 0.78904-0.36317 0.35864 0.53939 0.43038 0.74747 0.0717 0.20841 0.0717 0.35187 0 0.28691-0.86076 0.94389-0.86075 0.58519-2.0802 1.2767-1.1477 0.61293-2.2954 1.1541-1.1477 0.54109-1.7215 0.59655-0.71731 0.0696-1.4346-0.292-0.71731-0.28918-1.2911-0.87957-0.50211-0.59705-0.86076-1.3515-0.28692-0.76136-0.28692-1.6221 0-1.076 0.57383-3.2115 0.64557-2.2142 1.7215-5.1156 1.0759-2.9731 2.5823-6.4898 1.5063-3.5168 3.2278-7.1977 0-0.28692-0.28692-0.25925-0.2152 0.0225-1.1477 0.68467-0.86077 0.65691-1.6498 1.3069-2.5823 2.186-5.2363 5.3115-2.5823 3.0467-5.0928 6.6604-2.4388 3.6067-4.6624 7.6231-2.1519 3.9377-3.73 7.8918-0.21519 0.52301-0.64558 0.99479-0.43038 0.47217-0.71731 0.49984-0.21518 0.0225-0.64555-0.43997-0.35866-0.46766-0.71731-1.2219-0.28692-0.68957-0.57383-1.4509-0.28692-0.76131-0.28692-1.3351z"/>
  <path d="m231.13 175.26q1.865 0.39365 3.5148 2.2429 1.6498 1.7774 2.4388 4.0684-0.78903 2.0128-2.4388 4.8979-1.6498 2.885-3.2996 5.9135-1.6498 2.9567-3.0127 5.6706-1.2912 2.6352-1.5063 4.3058 1.1477-1.3302 2.5105-3.0399 1.4346-1.7883 2.7258-3.491 1.3629-1.7814 2.5105-3.1833 1.1477-1.4737 1.7932-2.1816 1.3629-1.5662 3.2278-3.6112 1.865-2.1168 3.8734-3.9604 2.0802-1.9223 4.1603-3.2708 2.0802-1.4203 3.8017-1.5864 1.865-0.18017 3.0844 0.99332 1.2911 1.0948 2.0084 2.3884 0 0.14341-0.57385 0.48573-0.50211 0.26377-1.5063 1.5083-1.0042 1.3881-2.2954 3.8081-1.2194 2.3413-2.4388 5.113-1.1477 2.6931-1.9367 5.495-0.78903 2.8019-0.78903 5.0256 0 1.7932 0.43039 2.2538 0.50211 0.45353 1.3629 0.37052 0.78903-0.0762 1.6498-0.51793 0.86077-0.44168 1.3629-0.49025 0.28692 0.11576 0.43037 0.604 0.2152 0.40947 0.2152 0.76824-0.57385 0.55747-1.3629 1.1358-0.78902 0.5783-1.6498 1.0918-0.86075 0.5134-1.7215 0.88353-0.78903 0.36316-1.4346 0.42528-2.0802 0.20108-3.443-0.31289-1.2911-0.44903-2.0802-1.3773-0.71729-0.93498-1.0042-2.2701-0.28692-1.4069-0.28692-2.985 0-0.86077 0.14341-1.9506 0.14341-1.0898 0.57385-2.566 0.43037-1.5478 1.2194-3.6325 0.78903-2.1564 2.0084-5.1433-0.14341 0.0116-1.9367 1.1912-1.7932 1.1774-3.8734 3.4584-3.3713 3.5533-6.0971 6.9726-2.654 3.4124-5.4515 7.5558-1.5781 2.376-2.7975 4-1.1477 1.6889-2.0084 2.2741-1.5063-0.71532-2.2236-2.2241-0.71729-1.4371-1.076-3.0522 0-1.3629 0.35866-3.4777 0.43037-2.1217 1.0759-4.6946 0.71729-2.6515 1.7215-5.5459 1.0042-2.8944 2.2236-5.8096 2.7258-6.5754 4.9494-10.377 2.2954-3.8081 2.8692-4.1505z"/>
 </g>
 <path d="m241.25 256.68c-24.813 22.138-57.325 35.046-91.903 35.046-29.75 0-58.703-9.6127-82.545-27.406" fill="none" stroke="#757083" stroke-linecap="round" stroke-linejoin="round" stroke-opacity=".9098" stroke-width="4.4394"/>
 <path d="m33.55 66.666c25.446-39.239 69.031-62.922 115.8-62.922 45.125-1.66e-5 87.4 22.06 113.21 59.074 0.48346 0.81139 0.95982 1.6231 1.4293 2.435" fill="none" stroke="#757083" stroke-linecap="round" stroke-opacity=".9098" stroke-width="4.4394"/>
 <g fill="#abb4b9">
  <path d="m112.91 266.23q-0.43038-0.54505-2.8931-4.7931-2.4388-4.2762-3.467-5.9342-0.0956 0.82996-0.43038 3.1849-0.64557 4.7534-0.64557 7.9096 0 0.74121 0.0956 1.9675-1.6737 0.2979-2.2714 0.0217-0.57384-0.30433-0.57384-1.0216 0-0.21519 0.78903-6.5483 0.78902-6.357 0.81293-8.8479l-0.21519-0.27253q-0.59774-0.77828-1.578-1.2016-0.2391-0.1009-0.28692-0.14021 1.1477-0.89766 2.1997-1.0849 2.1041-0.3745 3.0844 0.83779 0.98031 1.1884 3.6582 6.1154 0.28692 0.54668 0.86076 1.664 0.59775 1.0891 0.9564 1.7665 0.83685 1.6443 1.7932 3.0521 0.0717-0.94525 0.64557-5.8294 0.59775-4.9123 0.59775-7.7098 0-0.74121-0.0956-1.9197 1.6737-0.2979 2.2475-0.0175 0.57384 0.28043 0.57384 0.97382 0 0.26301-0.78903 6.8113-0.78903 6.5483-0.78903 9.011 0 0.88467 0.0478 1.2826 0.19128 0.13332 0.62166 0.29582-1.4824 1.2202-2.7496 1.4458-1.2672 0.22556-2.1997-1.0192z"/>
  <path d="m129.06 252.28q-1.5542 0.27662-2.7736 2.5977-1.2194 2.2972-1.2194 4.3774 0 4.3516 2.2475 3.9516 1.602-0.28513 2.6062-2.544 1.0042-2.2828 1.0042-4.889 0-3.8256-1.865-3.4936zm-2.0324-1.7902q0.26301-0.0468 0.4782 0.0823 0.2391 0.1009 0.2391 0.26827-2.4149 2.1035-2.8931 5.1774 0.50211-1.4283 1.2194-2.5363 0.74121-1.1122 1.5302-1.7548 1.5063-1.2006 2.9409-1.4559 1.4346-0.25534 2.4388 0.97661t1.0042 3.599q0 2.654-1.076 5.0692-1.1955 2.7233-3.3952 4.0713-1.2433 0.77122-2.7257 1.0351-2.0802 0.37024-3.6343-0.95511-1.5302-1.3535-1.5302-4.3662 0-3.0366 1.4824-5.5958 1.4824-2.5831 3.9212-3.615z"/>
  <path d="m141.54 262.04q-0.76512 0.47092-1.602 0.61987t-0.93249-0.19268q-0.38256-1.4622-0.88467-4.4094-0.50211-2.9711-1.0281-5.1489-0.5021-2.206-1.2194-3.2499 1.315-0.85572 2.1041-0.99616 0.78903-0.14043 1.1955 0.14587t0.66948 1.3154q0.28692 1.001 0.40647 1.6731 0.33474 2.2358 0.33474 2.4988t0.19128 2.1179q0.19128 1.8309 0.28692 2.4117 4.256-9.0065 4.256-11.78 1.9606 0.65526 1.9606 1.8268 0 0.9564-1.0042 3.024-0.98031 2.0394-2.4866 4.9855-1.4824 2.9179-2.2475 5.1581z"/>
  <path d="m156.91 259.81q0-0.38256 0.21519-1.0186 0.2391-0.6403 0.57384-1.0824 0.33474-0.46605 1.0281-0.9003 0.69339-0.45816 1.4585-0.59434 0.78903-0.14044 1.1238-0.17612 0.11955-1.3363 0.57384-5.0515 0.45429-3.7391 0.64557-5.4946-2.6062 1.9702-3.2278 2.0808-0.59775 0.1064-1.0281-0.82122-0.40647-0.93187-0.40647-1.6492 1.2672-0.51248 3.6343-1.6989 2.3671-1.1864 4.3277-2.4679 0 1.2433-0.62166 6.399-0.62166 5.1317-0.76512 8.2178 2.2475-0.44784 3.73-1.3573-0.0956 1.9537-0.64557 2.8646-0.52602 0.90657-1.9128 1.1534-0.4782 0.0851-2.128 0.11575-1.6259 0.0503-3.3474 0.35669-1.6976 0.30216-3.2278 1.1244z"/>
  <path d="m182.02 235.45q0.19127 0.0377 0.57383 0.25652 0.40647 0.19066 0.66948 0.40686 0.64557 0.53066 0.64557 1.3675t-1.1238 3.38q-1.1238 2.5193-2.5105 5.3245-1.3868 2.8052-2.6779 6.0716-1.2911 3.2664-1.5542 5.2499-0.26301 0.0468-0.83685-0.0423-0.57384-0.0892-0.93249-0.2405-0.35865-0.15136-0.66948-0.55032-0.28692-0.40322-0.28692-1.0966 0-0.7173 1.052-2.9847 1.052-2.2913 2.917-5.9468 1.865-3.6554 2.7975-5.7103-4.9494 1.8852-6.5513 2.1703-1.2433 0.22129-1.2433-1.9067 0-1.1716 0.21519-1.6403 2.9888-0.12549 5.2124-0.52127 2.2475-0.40004 3.443-0.68452 0.66948-1.8168 0.86076-2.9029z"/>
  <path d="m186.09 250.88q0.93249-0.42898 1.7932-0.58218 1.7693-0.31493 1.7693 1.1675 0 1.5542-1.1238 3.1649-1.1238 1.6346-3.2757 3.1414l-0.69339-0.95253q1.8889-2.0099 1.8889-4.2096 0-0.78903-0.35865-1.7294z"/>
  <path d="m203.09 240.69q-1.3868 0.24683-2.1997-0.44533-0.78903-0.69641-0.78903-1.868 0-1.5542 1.3629-2.9922 1.3629-1.4381 3.7539-1.8636 2.391-0.42557 3.993 0.43698 1.602 0.83864 1.602 3.1579t-2.128 5.4238q-2.1041 3.1002-6.2405 6.2036l0.45429-0.0809q2.5344-0.4511 4.7342-1.0817 2.2236-0.65879 3.1322-1.2031-0.0956 1.8342-0.90858 2.9831-0.81294 1.125-2.1041 1.3548-0.33474 0.0596-2.3671 0.1583-2.0084 0.11838-4.0647 0.48437-2.0324 0.36173-3.8256 1.2308 0-0.76512 0.62166-1.7126 0.66948-1.0516 1.9845-1.5965 1.076-1.0762 1.865-1.8861 0.78903-0.83382 1.9128-2.1815 1.1238-1.3716 1.8411-2.4796 0.7173-1.108 1.2433-2.4449 0.52602-1.3369 0.52602-2.5564t-0.69339-1.8133q-0.69339-0.61779-1.602-0.45607-0.90858 0.16171-1.5542 0.9461-0.64556 0.76047-0.64556 1.956t0.93248 2.1055q-0.43038 0.1483-0.83684 0.22065z"/>
  <path d="m221.03 233.14q-1.7454 0.31067-3.0366 2.9315t-1.2911 5.2748q0 2.6301 0.74121 4.124 0.74121 1.47 2.1758 1.2147 1.7693-0.31492 2.7975-2.7933 1.052-2.4826 1.052-5.4714 0-2.9888-0.69338-4.2282-0.69339-1.2395-1.7454-1.0522zm-1.0042-1.0407q1.3629-0.84032 2.4627-1.0361 2.0084-0.35748 3.0844 1.2204 1.0999 1.5736 1.0999 4.3471 0 4.0408-1.7932 7.5639-0.88467 1.7594-2.4149 3.0121-1.5063 1.2484-3.5865 1.6187-2.0563 0.36599-3.6821-1.3292-1.6259-1.6952-1.6259-5.4012 0-3.73 1.5781-6.6887 1.602-2.987 4.2082-4.192 0.62166-0.11065 0.66948 0.88506z"/>
  <path d="m229.02 246.97q0-0.38256 0.21519-1.0186 0.2391-0.6403 0.57384-1.0824 0.33474-0.46605 1.0281-0.9003 0.69339-0.45815 1.4585-0.59434 0.78903-0.14044 1.1238-0.17612 0.11955-1.3363 0.57384-5.0515 0.45429-3.7391 0.64557-5.4946-2.6062 1.9702-3.2278 2.0808-0.59775 0.1064-1.0281-0.82122-0.40647-0.93187-0.40647-1.6492 1.2672-0.51248 3.6343-1.6989 2.3671-1.1864 4.3277-2.4679 0 1.2433-0.62166 6.399-0.62166 5.1317-0.76512 8.2178 2.2475-0.44784 3.73-1.3573-0.0956 1.9537-0.64557 2.8646-0.52602 0.90657-1.9128 1.1534-0.4782 0.0851-2.128 0.11575-1.6259 0.0503-3.3474 0.35669-1.6976 0.30216-3.2278 1.1244z"/>
  <path d="m250.35 237.22q-0.16737-0.13758-0.69339-0.47433-0.52602-0.36067-0.76512-0.5333-1.076 1.0284-1.5302 1.97-0.43038 0.93737-0.43038 1.9655 0 1.0042 0.54993 1.5041 0.54993 0.49987 1.5063 0.32965 0.98031-0.17449 1.7932-0.91693 0.83685-0.77061 0.83685-1.8705 0-1.1238-1.2672-1.9742zm0.38256-10.062q-0.88467 0.15746-1.5781 0.90254-0.66948 0.71691-0.66948 1.7211t0.4782 1.6125q0.4782 0.58437 1.6737 1.2802 1.8889-2.0099 1.8889-3.9944 0-0.78903-0.45429-1.2342t-1.339-0.2877zm4.782 0.89429q0 3.2518-3.993 5.3014 1.3868 0.8052 2.0324 1.288 0.66948 0.47859 1.2194 1.3132 0.57384 0.83035 0.57384 1.8585 0 2.128-1.7454 3.7537-1.7215 1.6215-4.4473 2.1066-2.7018 0.48089-4.1125-0.46352-1.4107-0.94442-1.4107-2.642 0-3.0366 4.256-5.0852-1.5063-1.023-2.2236-1.9952-0.69339-0.97645-0.69339-2.4589 0-2.1041 1.6259-3.6368 1.6259-1.5327 4.1364-1.9796t3.6343 0.38126q1.1477 0.82386 1.1477 2.2585z"/>
 </g>
</svg>
