<svg version="1" xmlns="http://www.w3.org/2000/svg" width="1600" height="1600" viewBox="0 0 1200.000000 1200.000000"><path d="M315 64.4c0 13.4 4.2 29.9 16.7 65.1 7.4 21 24.3 55.9 33.2 69 9.8 14.2 16.4 19.5 24.3 19.5h4.8l-.6-4.3c-2.8-20.2-7.1-41.5-10.5-52.2-4.1-13.1-5.6-17.4-9.6-27.5-6.5-16.5-21.5-44.6-28.5-53.5-.5-.6-1.6-2-2.6-3.2-.9-1.2-2.6-3.4-3.7-5-5.3-7.4-9.4-10.3-19.2-13.6l-4.3-1.5v7.2zM492.8 67.6c-7.1 4.6-15 17.3-20.1 32.4-2.3 6.8-3.1 9.9-5.8 22.5-1.8 8.7-2.4 17.9-2.3 38 .1 29.5 2.7 46.2 9 59.1 3.8 7.8 7.5 12 9.5 10.9 1.2-.8 6.5-11.8 8.1-17 4.1-13.2 6.9-29.8 8.3-49 3.9-53.5 4.3-60.5 4-76.5-.2-11.2-.6-15.3-1.9-17.8-2.5-4.8-4.5-5.4-8.8-2.6zM911.5 74.8c-4.4.8-11.3 3.7-16.3 6.9-6.5 4.1-21.6 18.5-27.4 26.2-2.4 3.1-5.1 6.5-6 7.5-1 1.1-1.8 2.3-1.8 2.7 0 .4-.7 1.5-1.6 2.3-2.2 2.2-14 25.7-14.7 29.2-.3 1.6-1.1 4.9-1.7 7.4-1.6 6.2-.8 23.3 1.5 28.7l1.7 4.3 5.7-4.4c11.3-8.8 22.9-22.6 38.9-46.3 4.5-6.7 8.2-12.6 8.2-13.1 0-.6.4-1.2.9-1.4.9-.3 6-9.2 9.7-17 4.2-8.4 6.7-17.2 7.2-24.9.5-8 0-9-4.3-8.1zM1096.5 108.5c-.5.1-3.7 1.1-7 2-14.6 4.3-45.8 23-61.9 37-16.2 14.3-33.2 33-39.3 43.5-1.4 2.5-2.9 4.7-3.2 5-.6.4-2.3 3.6-8.2 15-3.9 7.4-5.5 14.4-5.8 25.3-.2 6.1.1 7.7 1.2 7.7 1.7 0 14.7-8.4 20.1-13.1 4.1-3.5 13.2-11.9 21.6-19.9 13.6-13.1 25.8-24.5 35-33 16.9-15.5 44.2-42.5 49.1-48.7 8.1-10.1 11.3-19.2 7.3-20.7-1.6-.6-7.1-.7-8.9-.1zM168 235.8l-3.5.7.1 7c0 5.4.6 8.3 2.7 12.9 5.4 11.6 15.6 25.2 26.9 35.5 6.7 6.1 17.7 14.1 19.4 14.1.8 0 1.4.4 1.4.9s.8 1.1 1.8 1.4c.9.3 4.4 1.5 7.6 2.6 13.9 4.9 19.4.7 16.1-12-4-15-17.8-33.1-36.7-48-15.9-12.5-26.3-16.9-35.8-15.1zM654 320.7c-17.6 1.2-43.6 5.9-68.5 12.5-15.5 4.1-35.3 10.5-37 11.9-.5.5-1.5.9-2.2.9-1.8 0-20.7 8.9-27.6 13-8.2 4.9-8.7 5.2-13.7 8.4-2.4 1.6-5.1 3.5-5.8 4.3-.7.7-1.7 1.3-2.1 1.3-.4 0-1.6.8-2.7 1.7-1 1-3.7 3.1-5.9 4.8-4 2.9-15.5 14.1-18.8 18.3-4.2 5.4-7.7 10.6-7.7 11.5 0 1.8 4.6.1 23.5-8.8 16.6-7.8 27-12.6 39-18 11.5-5.2 26.6-10.4 38.5-13.3 41.9-10.4 84.3-15 127.3-13.9 23.2.6 28 .9 39.2 2.7 3.3.5 8 1.2 10.5 1.5 2.5.4 5.9 1 7.5 1.5 1.7.4 6.6 1.6 11 2.5 19.3 4.1 61.7 17.7 77.2 24.6 2.4 1 4.6 1.9 4.9 1.9.3 0 2 .6 3.7 1.4 1.8.8 7 3.1 11.7 5.2 10.1 4.4 32.7 15.5 42.5 20.9 24.3 13.3 64.3 38.9 77 49.3.6.5 2.4 1.7 4 2.8 1.7 1 3.7 2.4 4.5 3.1 4.2 3.3 14.1 11.1 17 13.3 1.8 1.4 3.8 2.9 4.4 3.5 5.5 5 28.4 20.5 30.3 20.5 2.9 0-10.7-23-21.2-35.9-10.8-13.2-31.1-33.8-42.5-43.1-3-2.5-6.4-5.3-7.5-6.3-1.1-1.1-6.5-5.2-12-9.3-5.5-4.1-10.5-7.8-11-8.2-.6-.5-2.4-1.7-4-2.8-1.7-1-3.2-2.1-3.5-2.4-.6-.7-18.2-12.3-25.5-16.7-22.4-13.7-59.3-31.8-80.5-39.3-1.9-.7-4.8-1.9-6.5-2.5-1.6-.7-5.5-2.1-8.5-3-3-1-6.4-2.1-7.5-2.6-5.1-2-24.6-7.2-38.5-10.3-4.1-.9-9.3-2.1-11.5-2.6-5.5-1.4-15.4-3-25-4.1-7.2-.8-65.2-1-76.5-.2zM1173 352.1c-12.2 3.1-25.9 11.1-36.7 21.2-8.2 7.7-10.9 11.9-11.7 18.2-1.4 10.8 2.2 14 14.4 12.9 7.8-.7 12.8-2.3 24-7.6 16.5-7.8 31.8-19.7 35-27.2 1.6-3.9 1.6-4.2-.8-10.6-1.4-3.6-2.8-6.8-3.1-7.2-1.5-1.7-13.8-1.5-21.1.3zM141.1 409l-5.3 4.7.7 5.9c.7 5.8 2.8 14.9 4.4 18.9 6.7 16.5 18 33 28.6 41.8 7.2 6 16.5 6.4 19.8.8 4.7-7.9-.5-31.7-10.2-47.1-4.9-7.8-18.4-21.1-26.1-25.8l-6.6-3.9-5.3 4.7zM440 432.7c-2.5 1.5-5 3.2-5.5 3.7-8.8 9.2-20.6 27.9-30.3 47.8-3.4 7-6.2 13-6.2 13.3 0 .3-1.1 3-2.3 5.8-3.1 6.8-7.9 20.8-11.2 32.7-3.3 11.8-4.7 16.2-5.8 17.7-.8 1.2-2.3 1.5-17.2 3.3-14.4 1.8-35.7 5.1-39 6-1.6.4-6.6 1.6-11 2.5-7.1 1.6-20 5-33.5 9-5.9 1.8-22.2 7.7-28.5 10.4-2.7 1.2-7.2 3.2-10 4.4-7 3-35.7 17.6-43.5 22.1-36.1 20.8-68.1 45.4-97.5 75.1-13 13-22 23-28.5 31.5-1.9 2.5-3.9 5-4.5 5.7-2.1 2.6-3.1 3.9-5.5 7.3-1.3 1.9-2.7 3.7-3 4-.3.3-3.5 5-7.1 10.5C15.9 797.5 1.3 848.3.4 917c-.4 38.7 2.8 59.6 13.8 88.5 5 13.2 18.9 39.2 22.7 42.5.3.3 1.9 2.5 3.6 4.9 1.6 2.4 7.7 9.1 13.5 15 11.4 11.5 13.7 13.6 22 19.9 3 2.3 6 4.6 6.7 5.2 3.9 3.2 23.7 14.6 34.3 19.8 39.9 19.4 83.4 29.7 125.5 29.7 33.7 0 57.1-2.7 87.5-10.2 9.6-2.3 31.7-9.1 36.5-11.2 1.1-.5 6.7-2.8 12.5-5.2 13-5.2 41.1-19.5 41.8-21.2.2-.4 1-.7 1.8-.7s1.4-.5 1.4-1c0-.6.5-1 1.1-1 1 0 16.1-9.5 19.2-12 .7-.5 3.9-3.1 7.2-5.7 12.1-9.5 28-27.1 26.2-28.9-1.1-1.1-14.4 4.4-40.7 16.9-5.2 2.4-11.7 5.4-14.5 6.6-2.7 1.2-5.9 2.6-7 3.1-31.9 14-69.9 25.4-101.5 30.5-45.2 7.1-88.5 5.8-128.5-4.1-10.6-2.6-29.7-8.6-35.5-11.1-1.9-.8-4.4-1.9-5.5-2.3-11.8-4.6-43.3-22-48.1-26.4-.6-.6-3.5-3.1-6.5-5.6-7.4-6.2-23.4-22.3-29.5-29.5-7.4-8.8-17.8-27.1-23.4-41-3.3-8.1-6.1-18.5-5-18.5.4 0 3.3 2.4 6.6 5.3 3.2 3 7 6.3 8.4 7.5 1.4 1.1 3.9 3.2 5.5 4.7 1.7 1.4 6.2 4.6 10 7.2 3.9 2.6 7.2 4.9 7.5 5.2 1.4 1.7 22 12.1 30 15.3 22.5 9 37.5 11.5 68.3 11.7 26.3.2 41-1.4 64.5-7 13.3-3.1 42-13 57.7-19.9 15.3-6.6 44-21.6 59.5-31 7.9-4.8 29.3-19.1 30.8-20.7.7-.7 1.7-1.3 2.1-1.3.4 0 1.6-.8 2.7-1.8 1-1 3.5-2.9 5.4-4.2 1.9-1.3 4-2.9 4.6-3.5.6-.5 3.3-2.8 6-4.9 7.4-5.9 32.4-31.4 32.4-33.1 0-2.3-1.2-1.9-10.7 3.2-4.9 2.5-10.6 5.5-12.8 6.6-2.2 1.1-4.2 2.2-4.5 2.6-.5.6-7.8 4.7-11.7 6.5-1.3.6-2.3 1.4-2.3 1.8 0 .5-.4.8-1 .8-.5 0-7.7 3.8-16 8.5-15.8 9-44.4 23.7-57 29.4-20.8 9.3-57 22.5-67 24.5-1.9.4-4.4 1.1-5.5 1.6-1.1.4-5.6 1.5-10 2.5-4.4.9-9.8 2-12 2.5-16.7 3.9-57 5.5-63.9 2.6-3.8-1.6-10.5-9.5-14.3-16.9-10.6-21-9.4-46.9 3.5-76.7 3.8-8.7 16.7-31.2 18.3-31.8.5-.2.9-.8.9-1.3 0-.6.5-1.5 1-2.2.6-.7 2.4-3 4.1-5.2 9.1-11.9 8.9-11.6 17.6-21.5 6.3-7.1 29.1-30 36.4-36.5 14.4-12.8 23.1-20.1 37.9-31.8 2.8-2.2 12.5-9.3 14.6-10.8 1.2-.8 8.2-5.5 15.5-10.5 7.4-5 16.5-11 20.3-13.3 3.8-2.4 7.5-4.9 8.3-5.7.8-.8 2-1.4 2.8-1.4.7 0 1.5-.3 1.7-.8.4-.9 7.6-5.1 10.1-5.9.9-.3 1.7-.9 1.7-1.4 0-.5.4-.9 1-.9.5 0 5.8-2.4 11.7-5.3 14.1-6.9 25.2-11.5 28.8-11.9 2.8-.3 3 .1 7.2 10.2 5.1 12.3 14.4 31.4 15.5 31.8.5.2.8.9.8 1.6 0 1.3 10.5 17.5 16.4 25.2 9.5 12.4 23.3 26.6 36.7 37.9 4.4 3.7 28.9 19.7 31.9 20.8 1.6.6 3.2 1.7 3.5 2.5.2.7-1.4 4.8-3.8 9-5.8 10.5-10.1 20.1-9.4 20.8.5.6 14.5-6.5 21.7-10.9 9.9-6.1 18.1-13.1 33.5-28.3 15-14.9 24.6-25 31-32.8 2.2-2.7 4.5-5.4 5-6 2.5-2.7 14.5-19.6 14.5-20.5 0-.5.4-1.1.8-1.3 1.7-.7 14.5-22.4 20.1-34 11.9-24.5 17.3-42.9 21.1-71.8 1.5-12 2-14.1 3.2-13.4 1 .6 8.7 16.4 13.3 27.4 5.6 13.5 10.6 29.3 14.4 46 3.8 17 3.9 67.1 0 84.5-.6 2.7-1.7 8.1-2.6 12-3 13.8-10.6 37.3-16.2 50-5.2 11.9-15.1 30.8-22.3 42.3-4 6.4-7.5 11.9-7.8 12.2-.3.3-2.7 3.6-5.4 7.3-4.2 5.9-15.2 20.2-18.1 23.3-.5.6-3.2 3.7-6 6.9-6.6 7.7-30.6 31.7-37.9 38-16.3 14-34.6 31.5-34.6 33.1 0 1.8 9.4 0 22-4.3 12.6-4.2 33.4-14.9 41-21 .8-.6 5.2-3.9 9.7-7.2 4.5-3.3 9.4-7 10.9-8.3 1.5-1.3 5-4.2 7.8-6.6 2.8-2.4 10.6-10 17.3-16.9 8.4-8.6 12.6-12.2 13.5-11.7 1.3.8 12.3 8.6 14.3 10.2 6 4.7 29.1 17.8 44 25.1 27.6 13.4 63.7 25.5 92 30.7 34.2 6.3 48.4 7.7 80.5 7.7 54.8 0 94.5-9.2 128.8-30 23.7-14.4 38.6-30.2 49.7-52.5 3.8-7.8 5.2-9.8 6.9-9.8 1.6 0 1-.7-2.4-3-2.5-1.6-4.7-3-5-3-.3 0-2.1 1.5-4.1 3.3-9.5 8.6-16.7 14.6-22.3 18.7-3.4 2.5-6.2 4.8-6.4 5.2-.2.5-.8.8-1.3.8-.8 0-10.9 5.9-11.9 6.9-.7.9-14.5 7.5-21.5 10.4-8.3 3.5-22.9 8.3-29.5 9.7-3 .6-8.3 1.8-11.8 2.5-3.4.8-12.8 2.1-20.7 3.1-18.7 2.1-77.5 1.5-95.5-1-26.9-3.7-53-8.7-73-14-5.2-1.4-10.6-2.8-12-3.2-5-1.3-32.6-9.6-38.5-11.6-8.4-2.9-27.6-9.8-30-10.8-1.1-.5-6-2.3-10.8-4.1-4.8-1.7-9-3.5-9.2-4-.7-1 1.7-5.3 9.5-17 3.3-5.1 6-9.4 6-9.6 0-.3.9-1.7 2-3.2 3.1-4.4 16-29.7 16-31.4 0-.8.4-1.7.8-1.9.7-.2 6.3-14.5 10.2-25.8 1.9-5.5 5.9-20.8 6.5-25 1-6.6 2.7-12 3.7-12 .6 0 5.6 2.8 11.1 6.2 24.8 15.2 51 26.8 81.2 36.1 6.7 2.1 24.6 6.4 32 7.7 3.3.6 9.8 1.8 14.5 2.7 6.7 1.3 14.9 1.7 39.5 1.7l31 .1 12.5-3.2c21-5.3 35.7-12.1 54.8-25.5l4.2-2.9v2.6c0 4.2-7.1 21.2-12.8 30.5-1.2 1.9-2.5 4.2-2.9 5-2.6 5.5-20.8 24.2-32.8 33.8-2.3 1.9-16.5 11.2-16.9 11.2-.6 0-26.5 15.9-28.1 17.3-.5.4-3.1 2.3-5.7 4.1-2.6 1.8-4.5 3.5-4.2 3.8.7.8 18.5-2.7 28.4-5.5 9-2.6 28.2-9.9 31.5-12.1 1.1-.7 4.7-2.8 8-4.6 3.3-1.8 6.2-3.6 6.5-3.9.3-.3 3.2-2.4 6.5-4.6 5.6-3.8 21.2-18.5 26.6-25 1.3-1.7 4.2-5.7 6.4-9 19.2-29.1 24.4-63.2 15.8-104.5-2-9.9-8.1-29.6-11.8-38.5-.7-1.7-2.7-7-4.4-11.8-3.8-10.8-4.7-12.6-12-23.5-3.3-4.8-8.5-13.2-11.6-18.7-5.1-8.8-23.7-37.4-26.5-40.8-.6-.6-4.4-5.7-8.6-11.2-14.7-19.5-26.2-32.4-48.3-54.5-20.8-20.7-28.2-27.4-44.4-40.2-12.2-9.6-33.9-24.8-35.5-24.8-.6 0-1.2-.4-1.4-.9-.8-2.1-38.1-21.9-53.8-28.6-12.7-5.4-13.8-5.8-23-8.8-20.9-7-34.9-10-68.5-14.9-13.7-2-68.8-1.6-82.5.5-21.4 3.4-28 5-44 10.4-10.9 3.6-31.1 13.1-33 15.4-.3.3-2.5 1.9-5 3.4s-4.7 3.1-5 3.4c-.3.3-2.5 2.2-5 4.2-8 6.5-18 17.1-25.7 27.3-4.1 5.5-7.8 10.7-8.1 11.5-.3.9-.9 1.8-1.3 2.1-2 1.4-16.5 32.8-15.5 33.7.4.4 8.2-7 31.1-29.5 24.7-24.2 28.5-27.2 48-37 10.4-5.3 13.5-6.5 13.5-5.1 0 .6-1.3 4.9-2.9 9.7-7.6 22.4-10.1 37.2-10.1 58.5 0 18 1.6 30.4 5.5 42.1 2.9 9.1 10.4 26 13.7 31.1 11.6 17.6 24.3 28.7 37 32.1 5 1.3 11.8 1.9 11.8 1 0-.2-.9-2.1-1.9-4.3-3-5.8-6.7-14.1-9.6-21.3-1.5-3.6-3.3-7.9-4-9.5-2.6-5.7-7.2-18-8.9-24-1-3.3-2.1-7.1-2.6-8.5-1.2-3.5-3.7-14.7-4.4-19.8-.8-5.6.3-5.5 10.4.8 9.9 6.2 11 7.1 18.6 14.5 16.4 15.9 23.4 38.8 18.9 61.5-2.2 11.1-6.5 25.5-10.1 33.7-.8 1.7-1.4 3.4-1.4 3.7 0 1-6.1 14.1-12.2 26.1-5.8 11.5-24.6 42.4-27.4 45.3-.8.7-1.4 1.9-1.4 2.7 0 .7-.4 1.5-.8 1.7-1 .4-7.2 9.6-7.2 10.8 0 .4-.4 1-.8 1.2-.4.1-3.9 4.8-7.7 10.3-9.9 14.4-18.6 25.5-20 25.5-1.1 0-15.9-15.4-20.7-21.6-1.3-1.6-3.1-3.8-4.1-4.9-1.1-1.1-4-4.7-6.5-8s-4.9-6.2-5.2-6.5c-1.9-1.6-18.3-25.8-21-31-.7-1.4-1.6-2.7-1.9-3-1.3-1-13.1-25.9-16.4-34.5-6.8-17.8-10.5-32.2-14.8-57.5-1.8-10.6-1.9-66.6-.1-78 3-18.8 5.1-30.4 7.2-39.5.6-2.2 1.9-8.1 3-13 1.2-5 2.5-10.1 2.9-11.5.5-1.4 1.6-5 2.5-8 .8-3 3.8-13.2 6.6-22.5 8-26.8 12-41.4 12-43.5 0-1.5-1.1-1.2-6 1.7zM638.5 479c26.1 2.7 58.5 11.5 85 22.9 17.8 7.6 47.9 24.3 62.8 34.8 12.8 9 16.9 12 26.2 19.3 25.2 19.6 57.9 51.9 78 77 3.3 4.1 6.5 8 7 8.6 1.9 2.2 5.5 6.9 11 14.4 3 4.1 5.8 8 6.3 8.5 2 2.4 22.4 33.7 27.1 41.5 2.8 4.7 5.4 8.9 5.9 9.5.4.5 4 7.7 8.1 15.8 7.2 14.7 14.8 35.8 19.1 53.1l2.2 8.9-2.8 2.6c-15 13.9-38.9 24.4-61.1 26.6-13.8 1.5-59.4.7-68.8-1.1-1.1-.2-7.6-1.3-14.5-2.4-21.8-3.6-40.1-7.6-60-13.2-5.8-1.6-12.9-3.6-15.9-4.4-11.8-3.2-55.4-18.3-56.1-19.5-.4-.6-.8-6.9-.9-13.8-.3-26.4-4.3-52.9-11.2-73.3-12.3-36.6-31.4-65.4-56.5-85.1-7-5.5-11-9.8-19.4-21.2-12.6-17.1-28.3-26.8-60.7-37.6l-7.3-2.4v-6c0-3.3.9-12.9 2-21.3 3.1-24.4 7.3-39.6 11.7-42.1 2.3-1.3 70.4-1.4 82.8-.1zm-261.1 84.8c.3.5-.2 5.3-1.1 10.8-1.3 7.6-1.7 16.8-1.7 39.9 0 26.1.3 31.8 2.3 44.4 1.2 7.9 1.9 14.7 1.4 15.1-.4.4-6.4 2.2-13.3 3.9-24.2 6.2-52 16.7-71.5 27.1-13.9 7.4-18.9 10.2-23.3 13.1-2.4 1.6-4.5 2.9-4.8 2.9-1.5 0-37.5 25.4-43 30.5-.6.5-2.1 1.7-3.4 2.5-1.2.8-3.2 2.4-4.5 3.5-1.2 1.1-4.2 3.6-6.6 5.5-20.5 16.6-48.4 46.1-61 64.5-1.9 2.7-3.7 5.2-4 5.5-1.6 1.3-11.6 18.3-16.1 27.4-6 11.9-9 19.6-12.8 33.1-3.8 13.3-4.1 15.7-4.7 31.2-.6 14.9 1.3 26.1 6.9 42.5 1.6 4.8 2.8 9.6 2.6 10.6-.3 1.9-.7 1.8-7.8-1.5-6.9-3.3-24.9-13.8-26-15.2-.3-.4-2.5-2.2-5-4.1-5.5-4.3-12.3-10.4-16.4-14.9-1.7-1.9-4.3-4.6-5.8-6.1-3.6-3.7-10.4-14.3-12.3-19.3-3.6-9.7-4.4-16.7-4-36.7.4-25.9 2.7-37.3 12.2-62.9 4.6-12.3 17-37.8 21.8-44.9 1.4-2 2.5-4.2 2.5-4.8 0-.7.3-1.4.8-1.6.4-.2 2.3-2.8 4.2-5.8 3.3-5.4 16-22.8 18.3-25.2.7-.7 2.2-2.6 3.5-4.2 10.5-13.6 51.4-54.2 65.9-65.3 2.4-1.9 4.3-3.3 8.9-7.1 9.2-7.7 36.2-26.1 50.4-34.4 5.2-3.1 11.1-6.5 13-7.7 3.2-1.9 39.9-20.1 44.5-22.1 1.1-.5 4.3-1.8 7-3 2.8-1.2 6.4-2.8 8.2-3.6 5.5-2.5 21.8-8.3 44.8-15.9 27.5-9.1 28.8-9.4 29.9-7.7zM1056.5 540.3c-1.5 6 1.6 20.7 14.5 67.7 16.4 59.7 22.3 85.7 25.6 111.5 4.4 35.2 2.9 70.8-4.2 100.5-3 12.4-10.5 33.4-17.8 49.5-2 4.4-4.1 8.9-4.5 10-2.3 5.1-4.1 12.2-4.1 16.2v4.4l6-4.2c7.9-5.5 22.8-20.3 29.4-29.3 7.1-9.7 13-20 17.7-31.4.5-1.2 1.3-3.2 1.9-4.5 2.4-5.5 8.9-27 10.3-34.2 2.2-11.6 2.8-20.3 2.9-45.1 0-30.2-.9-40.4-6.1-65.4-4.1-19.6-15.7-54.8-24.1-73.5-17.4-38.7-31.7-61.9-44.7-72.9-2.2-1.8-2.2-1.8-2.8.7z"/></svg>